<?xml version="1.0" standalone="no"?>
<!DOCTYPE svg PUBLIC "-//W3C//DTD SVG 20010904//EN"
 "http://www.w3.org/TR/2001/REC-SVG-20010904/DTD/svg10.dtd">
<svg version="1.0" xmlns="http://www.w3.org/2000/svg"
 width="32.000000pt" height="32.000000pt" viewBox="0 0 32.000000 32.000000"
 preserveAspectRatio="xMidYMid meet">

<g transform="translate(0.000000,32.000000) scale(0.100000,-0.100000)"
fill="#000000" stroke="none">
<path d="M136 302 c-2 -4 8 -8 22 -7 23 0 27 -4 27 -30 0 -27 -4 -30 -34 -33
-42 -4 -38 20 5 29 l29 5 -33 5 c-28 5 -33 2 -38 -18 -8 -30 -54 -33 -54 -3 0
16 -7 20 -30 20 -17 0 -30 -4 -30 -10 0 -5 11 -10 24 -10 15 0 27 -7 31 -19 3
-12 13 -17 28 -16 20 2 23 -2 24 -38 2 -30 -1 -37 -7 -27 -6 9 -10 10 -10 3 0
-7 10 -23 23 -37 18 -20 28 -23 57 -19 30 5 32 7 15 15 -14 6 -10 7 15 3 23
-4 46 0 67 12 30 16 33 22 32 63 0 32 -3 39 -8 25 -7 -17 -8 -17 -15 8 -5 20
-13 27 -31 27 -14 0 -25 5 -25 11 0 6 7 8 16 5 8 -3 12 -2 9 4 -3 6 -14 10
-24 10 -10 0 -24 7 -31 15 -13 16 -46 20 -54 7z m43 -115 c17 -47 12 -55 -10
-17 -11 19 -17 26 -13 15 16 -48 14 -57 -6 -25 -19 32 -21 26 -4 -15 3 -8 1
-15 -5 -15 -11 0 -13 8 -15 61 -1 21 3 27 21 27 15 0 25 -9 32 -31z m46 2 c9
-17 15 -33 13 -35 -3 -2 -12 12 -21 31 -21 43 -13 47 8 4z m29 -6 c9 -18 14
-33 12 -33 -6 0 -36 55 -36 66 0 11 5 3 24 -33z"/>
<path d="M106 82 c-3 -5 -2 -22 3 -38 9 -35 40 -45 48 -15 8 29 58 29 66 0 7
-25 43 -22 41 4 -1 9 2 17 7 17 5 0 9 3 9 8 0 4 -38 6 -85 4 -59 -2 -85 0 -85
8 0 6 5 8 12 4 7 -4 8 -3 4 4 -9 14 -13 15 -20 4z"/>
</g>
</svg>
